HIERARCHY
ROOT Hips
{
	OFFSET	0.00	0.00	0.00
	CHANNELS 6 Xposition Yposition Zposition Zrotation Xrotation Yrotation
	JOINT Spine
	{
		OFFSET	 0.00	0.01	 0.00
		CHANNELS 3 Zrotation Xrotation Yrotation
		JOINT Spine1
		{
			OFFSET	 0.00	 2.45913012437421	 0.00
			CHANNELS 3 Zrotation Xrotation Yrotation
            JOINT Neck
            {
                OFFSET	 0.00	 2.48462964506057	 0.00
                CHANNELS 3 Zrotation Xrotation Yrotation
                JOINT Head
                {
                    OFFSET	 0.00	 0.927524780924562	 0.00
                    CHANNELS 3 Zrotation Xrotation Yrotation
                    End Site 
                    {
                        OFFSET	 0.00	 1.14999962169752	 0.00
                    }
                }
            }
			JOINT LeftShoulder
			{
				OFFSET	 0.00	 2.48462964506057	 0.00
				CHANNELS 3 Zrotation Xrotation Yrotation
				JOINT LeftUpArm
				{
					OFFSET	 0.00	 1.24881979654096	 0.00
					CHANNELS 3 Zrotation Xrotation Yrotation
					JOINT LeftForeArm
					{
						OFFSET	 0.00	2.59758046908119	 0.00
						CHANNELS 3 Zrotation Xrotation Yrotation
						JOINT LeftHand
						{
							OFFSET	 0.00	2.45542024364365	 0.00
							CHANNELS 3 Zrotation Xrotation Yrotation
							JOINT LeftHandThumb 
							{
								OFFSET	 0.00	0.00	 0.00
								CHANNELS 3 Zrotation Xrotation Yrotation
								End Site
								{
									OFFSET	 0.00	0.00	1.00000003353624
								}
							}
							JOINT L_Wrist_End 
							{
								OFFSET	 0.00	0.99999967115358	 0.00
								CHANNELS 3 Zrotation Xrotation Yrotation
								End Site 
								{
									OFFSET	 0.00	 0.00	 0.00
								}
							}
						}
					}
				}
			}
			JOINT RightShoulder
			{
				OFFSET	 0.00	 2.48462964506057	 0.00
				CHANNELS 3 Zrotation Xrotation Yrotation
				JOINT RightUpArm
				{
					OFFSET	 0.00	 1.24881979654096	 0.00
					CHANNELS 3 Zrotation Xrotation Yrotation
					JOINT RightForeArm
					{
						OFFSET	 0.00	2.59758046908119	 0.00
						CHANNELS 3 Zrotation Xrotation Yrotation
						JOINT RightHand
						{
							OFFSET	 0.00	2.45542024364365	 0.00
							CHANNELS 3 Zrotation Xrotation Yrotation
							JOINT RightHandThumb 
							{
								OFFSET	 0.00	0.00	 0.00
								CHANNELS 3 Zrotation Xrotation Yrotation
								End Site
								{
									OFFSET	 0.00	0.00	1.00000003353624
								}
							}
							JOINT R_Wrist_End 
							{
								OFFSET	 0.00	0.99999967115358	 0.00
								CHANNELS 3 Zrotation Xrotation Yrotation
								End Site 
								{
									OFFSET	 0.00	 0.00	 0.00
								}
							}
						}
					}
				}
			}
		}
	}
	JOINT LeftUpLeg
	{
		OFFSET	 1.2719394002717	 0.00	 0.00
		CHANNELS 3 Zrotation Xrotation Yrotation
		JOINT LeftLowLeg
		{
			OFFSET	 0.00	-4.3429100912261	 0.00
			CHANNELS 3 Zrotation Xrotation Yrotation
			JOINT LeftFoot
			{
				OFFSET	 0.00	-4.48767017425826	 0.00
				CHANNELS 3 Zrotation Xrotation Yrotation
				JOINT LeftToeBase
                {
                    OFFSET	 0.00	0.00	 1.51507020887566
                    CHANNELS 3 Zrotation Xrotation Yrotation
                    End Site 
                    {
                        OFFSET	 0.00	0.00	 0.75000010571191
                    }
                }
			}
		}
	}
	JOINT RightUpLeg
	{
		OFFSET	 -1.2719393604653	 0.00	 0.00
		CHANNELS 3 Zrotation Xrotation Yrotation
		JOINT RightLowLeg
		{
			OFFSET	 0.00	-4.3429100912261	 0.00
			CHANNELS 3 Zrotation Xrotation Yrotation
			JOINT RightFoot
			{
				OFFSET	 0.00	-4.48767017425826	 0.00
				CHANNELS 3 Zrotation Xrotation Yrotation
				JOINT RightToeBase
                {
                    OFFSET	 0.00	0.00	 1.51507020887566
                    CHANNELS 3 Zrotation Xrotation Yrotation
                    End Site 
                    {
                        OFFSET	 0.00	0.00	 0.749999965609858
                    }
                }   
			}
		}
	}
}
MOTION 
Frames:	20 
Frame Time: 0.02 
 1.4817100524902345 1.3048800659179687 9.389869995117188 -147.642 81.9588 145.458 4.25783 -6.71655 0.516856 1.182 -12.3897 0.755403 -3.26236 66.4821 -3.61996 97.2106 -79.8198 81.0046 -113.1025 -8.97172 -15.6288 16.0504 11.065 -31.4559 0.0 4.94399 0.0 23.8178 -9.23922 19.3655 0.0 0.0 0.0 0.0 0.0 0.0 112.666504 -8.61498 9.26264 -18.4684 -0.900925 47.7914 0.0 15.3535 0.0 -25.857 -13.9167 -55.0595 0.0 0.0 0.0 0.0 0.0 0.0 4.38409 -3.44636 4.71266 0.0 8.1126 0.0 -16.65 -1.0046005 10.3515 0.0 -25.5343 0.0 6.89845 -3.24834 1.25051 0.0 8.5434 0.0 16.5026 3.2553997 -20.663 0.0 -33.5829 0.0 
  1.4822300720214843 1.3046299743652343 9.389650268554687 -147.654 81.9584 145.416 4.15067 -7.07408 0.472314 1.4032 -11.7415 0.711342 -3.67762 66.3422 -3.18017 97.8262 -79.889 81.6154 -113.3249 -8.9393 -15.8755 16.1231 11.0444 -31.56 0.0 4.99403 0.0 23.8254 -9.31323 19.5185 0.0 0.0 0.0 0.0 0.0 0.0 112.643 -8.37293 9.43529 -18.5079 -0.879313 47.6914 0.0 15.3801 0.0 -25.9257 -13.7798 -55.1531 0.0 0.0 0.0 0.0 0.0 0.0 4.38234 -3.4187 4.77931 0.0 8.08112 0.0 -16.6586 -1.0079994 10.3347 0.0 -25.5307 0.0 6.89708 -3.25276 1.29551 0.0 8.54942 0.0 16.4965 3.2560997 -20.6601 0.0 -33.5621 0.0 
  1.4827000427246093 1.307030029296875 9.389650268554687 -147.663 81.9421 145.465 4.14779 -7.04644 0.448646 1.3832 -11.7809 0.687819 -3.61075 66.4071 -3.25111 97.6894 -79.8739 81.506 -113.3159 -8.92482 -15.8671 16.1144 11.0722 -31.4459 0.0 5.02797 0.0 23.9357 -9.33381 19.7585 0.0 0.0 0.0 0.0 0.0 0.0 112.632095 -8.38427 9.39613 -18.4955 -0.865849 47.4522 0.0 15.4052 0.0 -25.9195 -13.7695 -54.8249 0.0 0.0 0.0 0.0 0.0 0.0 4.38561 -3.4707 4.71742 0.0 8.1089 0.0 -16.6566 -1.0179996 10.3548 0.0 -25.5338 0.0 6.89919 -3.28554 1.21854 0.0 8.55264 0.0 16.4903 3.2712002 -20.6376 0.0 -33.5326 0.0 
  1.483179931640625 1.306929931640625 9.38969970703125 -147.734 81.929 145.469 4.14795 -7.08558 0.479389 1.37364 -11.7452 0.720341 -3.46647 66.4605 -3.41705 97.5072 -79.8558 81.3793 -113.3004 -8.912 -15.8361 16.0978 11.0974 -31.3939 0.0 5.05135 0.0 24.0953 -9.32084 19.9848 0.0 0.0 0.0 0.0 0.0 0.0 112.655 -8.40304 9.35816 -18.5198 -0.817988 47.4723 0.0 15.3698 0.0 -25.8603 -13.6803 -55.0292 0.0 0.0 0.0 0.0 0.0 0.0 4.38416 -3.44798 4.80042 0.0 8.06164 0.0 -16.6469 -1.0072002 10.3467 0.0 -25.5052 0.0 6.89894 -3.29124 1.28185 0.0 8.52986 0.0 16.5033 3.2860003 -20.6379 0.0 -33.5307 0.0 
  1.4841499328613281 1.3108900451660157 9.389730224609375 -147.605 81.9471 145.322 4.15367 -6.98841 0.48976 1.35619 -11.8038 0.731517 -3.32549 66.5102 -3.57958 97.3999 -79.84 81.2897 -113.2945 -8.90047 -15.798 16.0938 11.1111 -31.3732 0.0 5.06399 0.0 24.1586 -9.28227 20.1034 0.0 0.0 0.0 0.0 0.0 0.0 112.6606 -8.38054 9.3728 -18.5149 -0.844509 47.4846 0.0 15.3701 0.0 -25.6382 -13.7577 -55.1164 0.0 0.0 0.0 0.0 0.0 0.0 4.38191 -3.4568 4.77202 0.0 8.08613 0.0 -16.6408 -1.0217991 10.3916 0.0 -25.513 0.0 6.89955 -3.28561 1.31658 0.0 8.51941 0.0 16.5286 3.2891998 -20.6459 0.0 -33.5015 0.0 
  1.484199981689453 1.3122999572753906 9.389760131835937 -147.687 81.9092 145.396 4.10505 -7.10289 0.479621 1.43341 -11.6517 0.725336 -3.38751 66.5277 -3.51985 97.4458 -79.8594 81.3109 -113.3669 -8.8749 -15.8526 16.1234 11.1176 -31.2355 0.0 5.06522 0.0 24.2161 -9.25134 20.0781 0.0 0.0 0.0 0.0 0.0 0.0 112.6559 -8.3405 9.37218 -18.5068 -0.854891 47.6357 0.0 15.3584 0.0 -25.3507 -13.9656 -55.0985 0.0 0.0 0.0 0.0 0.0 0.0 4.39229 -3.50163 4.73911 0.0 8.08592 0.0 -16.6636 -1.0447998 10.4211 0.0 -25.5051 0.0 6.91332 -3.30525 1.32768 0.0 8.46846 0.0 16.5102 3.3177996 -20.665 0.0 -33.4784 0.0 
  1.4845399475097656 1.3142399597167969 9.389650268554687 -147.683 81.9025 145.373 4.08809 -7.12308 0.483555 1.42605 -11.5952 0.732038 -3.31547 66.5575 -3.59368 97.2569 -79.8532 81.0791 -113.3687 -8.86922 -15.8349 16.1409 11.1263 -31.1899 0.0 5.0844 0.0 24.1585 -9.2388 20.3576 0.0 0.0 0.0 0.0 0.0 0.0 112.6733 -8.30488 9.3289 -18.5008 -0.922206 47.8024 0.0 15.223 0.0 -24.7594 -14.1928 -54.6031 0.0 0.0 0.0 0.0 0.0 0.0 4.39367 -3.50859 4.74246 0.0 8.0731 0.0 -16.6362 -1.0445004 10.4448 0.0 -25.515999 0.0 6.91648 -3.29135 1.33647 0.0 8.4058 0.0 16.4926 3.3493004 -20.6672 0.0 -33.4968 0.0 
  1.4845700073242187 1.3155299377441407 9.389619750976562 -147.682 81.9093 145.363 4.06927 -7.11889 0.487194 1.41724 -11.5694 0.739311 -3.20813 66.5843 -3.71164 97.2537 -79.8343 81.0724 -113.3687 -8.86317 -15.7954 16.1554 11.1319 -31.1781 0.0 5.06761 0.0 24.187 -9.19657 20.5522 0.0 0.0 0.0 0.0 0.0 0.0 112.6751 -8.32165 9.34316 -18.4545 -0.918811 47.8168 0.0 15.1714 0.0 -24.6109 -14.3047 -54.638 0.0 0.0 0.0 0.0 0.0 0.0 4.39025 -3.50335 4.72054 0.0 8.06335 0.0 -16.6244 -1.0380993 10.4671 0.0 -25.532 0.0 6.90819 -3.29121 1.27487 0.0 8.39956 0.0 16.4799 3.3723001 -20.6078 0.0 -33.5279 0.0 
  1.4848300170898439 1.3183200073242187 9.389660034179688 -147.676 81.9042 145.318 4.05907 -7.09511 0.497422 1.38692 -11.5666 0.752884 -3.07198 66.6313 -3.84347 97.1403 -79.7943 80.9632 -113.3643 -8.86217 -15.7321 16.1959 11.1107 -30.8771 0.0 5.03716 0.0 24.2549 -9.25453 20.6295 0.0 0.0 0.0 0.0 0.0 0.0 112.6771 -8.31885 9.4065 -18.355 -0.928204 47.7968 0.0 15.0556 0.0 -24.3832 -14.3441 -54.8057 0.0 0.0 0.0 0.0 0.0 0.0 4.39296 -3.51138 4.71345 0.0 8.05284 0.0 -16.6239 -1.0473003 10.5053 0.0 -25.5267 0.0 6.91307 -3.29962 1.28745 0.0 8.37183 0.0 16.4587 3.4024 -20.6022 0.0 -33.536697 0.0 
  1.485449981689453 1.321219940185547 9.3897998046875 -147.653 81.9023 145.246 4.0632 -7.05377 0.515579 1.36685 -11.5827 0.772146 -3.03849 66.6724 -3.87423 97.001 -79.787 80.8171 -113.3638 -8.854 -15.7299 16.2272 11.1038 -30.574 0.0 4.96604 0.0 24.3183 -9.31944 20.7302 0.0 0.0 0.0 0.0 0.0 0.0 112.6565 -8.31322 9.4273 -18.2453 -0.956011 47.7785 0.0 14.963 0.0 -24.2754 -14.3603 -54.6362 0.0 0.0 0.0 0.0 0.0 0.0 4.39647 -3.51196 4.74409 0.0 8.03891 0.0 -16.644 -1.0494003 10.5067 0.0 -25.517399 0.0 6.91524 -3.31889 1.31539 0.0 8.36941 0.0 16.4606 3.4257002 -20.5898 0.0 -33.545 0.0 
  1.4859300231933594 1.3236199951171874 9.390189819335937 -147.757 81.8942 145.257 4.06521 -7.05417 0.544666 1.35065 -11.5612 0.802834 -3.01518 66.7334 -3.90327 96.8671 -79.787 80.7053 -113.3655 -8.85717 -15.698 16.2572 11.076 -30.3614 0.0 4.88808 0.0 24.4488 -9.34447 20.8372 0.0 0.0 0.0 0.0 0.0 0.0 112.6702 -8.2907 9.44988 -18.1701 -0.969474 47.9588 0.0 14.9195 0.0 -24.0989 -14.5403 -54.6053 0.0 0.0 0.0 0.0 0.0 0.0 4.39339 -3.50433 4.81348 0.0 8.00726 0.0 -16.6709 -1.0352001 10.4971 0.0 -25.5354 0.0 6.91197 -3.34472 1.40505 0.0 8.35556 0.0 16.4449 3.4596004 -20.6059 0.0 -33.5627 0.0 
  1.4862300109863282 1.325659942626953 9.390449829101563 -147.731 81.8893 145.205 4.05269 -7.05973 0.539467 1.3741 -11.5223 0.798385 -3.07429 66.7858 -3.85982 96.7863 -79.8204 80.6274 -113.3489 -8.84662 -15.6854 16.2183 10.997 -30.3801 0.0 4.85401 0.0 24.6223 -9.36574 20.8156 0.0 0.0 0.0 0.0 0.0 0.0 112.6751 -8.2955 9.49425 -18.13 -0.924594 47.9949 0.0 14.8774 0.0 -24.0659 -14.8247 -54.6758 0.0 0.0 0.0 0.0 0.0 0.0 4.39789 -3.4964 4.84053 0.0 7.97271 0.0 -16.6499 -1.0153999 10.5067 0.0 -25.5304 0.0 6.91261 -3.36456 1.35346 0.0 8.36055 0.0 16.4282 3.5023003 -20.5447 0.0 -33.5744 0.0 
  1.4867599487304688 1.32822998046875 9.390750122070312 -147.759 81.8812 145.211 4.03 -7.05028 0.527873 1.40242 -11.5084 0.789327 -3.12087 66.8556 -3.8238 96.7796 -79.8359 80.6655 -113.3742 -8.88462 -15.7387 16.2147 10.9929 -30.537 0.0 4.82881 0.0 24.772 -9.42635 20.7484 0.0 0.0 0.0 0.0 0.0 0.0 112.6909 -8.31532 9.47365 -18.1121 -0.884217 48.0614 0.0 14.7915 0.0 -23.9508 -14.9276 -54.5641 0.0 0.0 0.0 0.0 0.0 0.0 4.39639 -3.50888 4.8448 0.0 7.95509 0.0 -16.6397 -1.0023003 10.5289 0.0 -25.5251 0.0 6.90208 -3.40335 1.24803 0.0 8.38114 0.0 16.4197 3.5510998 -20.4233 0.0 -33.568703 0.0 
  1.4878700256347657 1.3312399291992187 9.390780029296875 -147.71 81.885 145.121 4.03266 -7.0472 0.524795 1.41768 -11.4457 0.783983 -3.24453 66.9076 -3.70641 96.7621 -79.8719 80.6684 -113.4002 -8.9079 -15.7852 16.2155 10.9554 -30.6984 0.0 4.82806 0.0 24.8478 -9.49356 20.7856 0.0 0.0 0.0 0.0 0.0 0.0 112.6823 -8.28162 9.45815 -18.0622 -0.888826 48.1312 0.0 14.7273 0.0 -24.0061 -14.8969 -54.7362 0.0 0.0 0.0 0.0 0.0 0.0 4.38563 -3.50319 4.81903 0.0 7.93979 0.0 -16.7884 -1.0293007 10.6246 0.0 -25.6064 0.0 6.90095 -3.42991 1.29556 0.0 8.40856 0.0 16.4256 3.5552998 -20.4234 0.0 -33.5903 0.0 
  1.4882499694824218 1.3336000061035156 9.390919799804687 -147.748 81.8779 145.117 4.03295 -7.02557 0.530527 1.41977 -11.4627 0.790219 -3.35006 66.9799 -3.59509 96.6763 -79.8932 80.5895 -113.4022 -8.92695 -15.7917 16.2232 10.9291 -30.7542 0.0 4.82706 0.0 24.8812 -9.56935 20.8969 0.0 0.0 0.0 0.0 0.0 0.0 112.6765 -8.26086 9.45646 -18.0162 -0.89752 48.1946 0.0 14.7239 0.0 -24.07 -14.8671 -54.9207 0.0 0.0 0.0 0.0 0.0 0.0 4.39372 -3.51336 4.90342 0.0 7.92766 0.0 -16.6197 -0.9882002 10.5584 0.0 -25.5592 0.0 6.90184 -3.46621 1.34597 0.0 8.43091 0.0 16.4296 3.5614004 -20.4269 0.0 -33.5932 0.0 
  1.489239959716797 1.3373500061035157 9.390910034179688 -147.602 81.8975 144.998 4.03358 -6.96322 0.504812 1.41175 -11.4815 0.763073 -3.55766 67.0987 -3.36648 96.4606 -79.9289 80.3728 -113.4004 -8.93688 -15.7879 16.2221 10.8702 -30.5711 0.0 4.83237 0.0 24.9167 -9.61841 20.8886 0.0 0.0 0.0 0.0 0.0 0.0 112.6652 -8.27922 9.45818 -17.9655 -0.899513 48.1346 0.0 14.7355 0.0 -24.1292 -14.9189 -54.8825 0.0 0.0 0.0 0.0 0.0 0.0 4.39186 -3.52692 4.83039 0.0 7.95251 0.0 -16.6166 -1.0018997 10.592 0.0 -25.539501 0.0 6.89894 -3.47233 1.27492 0.0 8.44885 0.0 16.4098 3.5797997 -20.3989 0.0 -33.5942 0.0 
  1.4896000671386718 1.3384100341796874 9.390919799804687 -147.578 81.9035 144.953 4.03661 -6.95398 0.509954 1.40778 -11.4755 0.767947 -3.57504 67.1401 -3.34375 96.3025 -79.932 80.2133 -113.3961 -8.94542 -15.7726 16.2246 10.8565 -30.6303 0.0 4.84227 0.0 24.9178 -9.66381 20.9719 0.0 0.0 0.0 0.0 0.0 0.0 112.6631 -8.27454 9.46436 -17.9473 -0.915105 48.0914 0.0 14.744 0.0 -24.12 -14.9299 -54.8041 0.0 0.0 0.0 0.0 0.0 0.0 4.39109 -3.51786 4.86059 0.0 7.94359 0.0 -16.617 -0.99699974 10.5842 0.0 -25.539501 0.0 6.89789 -3.4807 1.28316 0.0 8.46279 0.0 16.4167 3.5824003 -20.387 0.0 -33.6315 0.0 
  1.49093994140625 1.3424099731445311 9.390830078125 -147.392 81.9403 144.736 4.03638 -6.91809 0.522066 1.41423 -11.4174 0.779558 -3.6989 67.3036 -3.20446 96.0458 -79.946 79.982 -113.313 -8.93185 -15.7745 16.0471 10.7132 -30.4797 0.0 5.04567 0.0 24.9599 -9.803 20.8405 0.0 0.0 0.0 0.0 0.0 0.0 112.6407 -8.24854 9.47652 -17.8611 -0.969424 48.2016 0.0 14.7987 0.0 -24.1047 -14.9815 -54.7546 0.0 0.0 0.0 0.0 0.0 0.0 4.3786 -3.4989 4.82942 0.0 7.95862 0.0 -16.7709 -1.0317001 10.6574 0.0 -25.5876 0.0 6.88777 -3.48886 1.22359 0.0 8.51332 0.0 16.3948 3.6029997 -20.3105 0.0 -33.6625 0.0 
  1.4923800659179687 1.3460800170898437 9.390980224609375 -147.342 81.9552 144.665 4.03336 -6.91738 0.525184 1.43691 -11.3326 0.781282 -3.88655 67.393 -2.98434 95.9889 -79.9583 79.9209 -113.2999 -8.9646 -15.7668 15.9597 10.7068 -30.4573 0.0 5.08115 0.0 24.9072 -9.84177 20.646 0.0 0.0 0.0 0.0 0.0 0.0 112.6425 -8.2668 9.47683 -17.8306 -0.924506 48.1872 0.0 14.7738 0.0 -24.1162 -14.967 -54.6737 0.0 0.0 0.0 0.0 0.0 0.0 4.36726 -3.51435 4.83641 0.0 7.98079 0.0 -16.7393 -1.0284004 10.6875 0.0 -25.5905 0.0 6.88454 -3.51363 1.32131 0.0 8.54802 0.0 16.4216 3.5777998 -20.3786 0.0 -33.6344 0.0 
  1.492550048828125 1.3474899291992188 9.391079711914063 -147.296 81.9683 144.643 4.01512 -6.91675 0.50868 1.44651 -11.2961 0.766196 -3.93523 67.4666 -2.92086 95.8024 -79.9569 79.7412 -113.308395 -8.98478 -15.7054 15.9307 10.7111 -30.571 0.0 5.11221 0.0 24.9068 -9.88532 20.5943 0.0 0.0 0.0 0.0 0.0 0.0 112.6327 -8.302 9.45315 -17.7744 -0.876168 48.2436 0.0 14.7441 0.0 -24.1219 -14.8738 -54.7989 0.0 0.0 0.0 0.0 0.0 0.0 4.36738 -3.52007 4.83556 0.0 7.99195 0.0 -16.7573 -1.0125008 10.6492 0.0 -25.5825 0.0 6.88205 -3.50155 1.29873 0.0 8.53302 0.0 16.4028 3.5873003 -20.3966 0.0 -33.6889 0.0 
